<?xml version="1.0" encoding="UTF-8" standalone="no"?>
<!DOCTYPE svg PUBLIC "-//W3C//DTD SVG 1.1//EN"
 "http://www.w3.org/Graphics/SVG/1.1/DTD/svg11.dtd">
<!-- Generated by graphviz version 2.38.0 (20140413.2041)
 -->
<!-- Title: Tree Pages: 1 -->
<svg width="893pt" height="671pt"
 viewBox="0.00 0.00 892.50 671.00" xmlns="http://www.w3.org/2000/svg" xmlns:xlink="http://www.w3.org/1999/xlink">
<g id="graph0" class="graph" transform="scale(1 1) rotate(0) translate(4 667)">
<title>Tree</title>
<polygon fill="white" stroke="none" points="-4,4 -4,-667 888.5,-667 888.5,4 -4,4"/>
<!-- 0 -->
<g id="node1" class="node"><title>0</title>
<path fill="#f7f3fd" stroke="black" d="M533.5,-663C533.5,-663 404.5,-663 404.5,-663 398.5,-663 392.5,-657 392.5,-651 392.5,-651 392.5,-592 392.5,-592 392.5,-586 398.5,-580 404.5,-580 404.5,-580 533.5,-580 533.5,-580 539.5,-580 545.5,-586 545.5,-592 545.5,-592 545.5,-651 545.5,-651 545.5,-657 539.5,-663 533.5,-663"/>
<text text-anchor="start" x="400.5" y="-647.8" font-family="Helvetica,sans-Serif" font-size="14.00">petal width (cm) ≤ 0.8</text>
<text text-anchor="start" x="431" y="-632.8" font-family="Helvetica,sans-Serif" font-size="14.00">gini = 0.665</text>
<text text-anchor="start" x="421" y="-617.8" font-family="Helvetica,sans-Serif" font-size="14.00">samples = 120</text>
<text text-anchor="start" x="407" y="-602.8" font-family="Helvetica,sans-Serif" font-size="14.00">value = [39, 37, 44]</text>
<text text-anchor="start" x="417.5" y="-587.8" font-family="Helvetica,sans-Serif" font-size="14.00">class = virginica</text>
</g>
<!-- 1 -->
<g id="node2" class="node"><title>1</title>
<path fill="#e58139" stroke="black" d="M438.5,-536.5C438.5,-536.5 339.5,-536.5 339.5,-536.5 333.5,-536.5 327.5,-530.5 327.5,-524.5 327.5,-524.5 327.5,-480.5 327.5,-480.5 327.5,-474.5 333.5,-468.5 339.5,-468.5 339.5,-468.5 438.5,-468.5 438.5,-468.5 444.5,-468.5 450.5,-474.5 450.5,-480.5 450.5,-480.5 450.5,-524.5 450.5,-524.5 450.5,-530.5 444.5,-536.5 438.5,-536.5"/>
<text text-anchor="start" x="359.5" y="-521.3" font-family="Helvetica,sans-Serif" font-size="14.00">gini = 0.0</text>
<text text-anchor="start" x="345" y="-506.3" font-family="Helvetica,sans-Serif" font-size="14.00">samples = 39</text>
<text text-anchor="start" x="335.5" y="-491.3" font-family="Helvetica,sans-Serif" font-size="14.00">value = [39, 0, 0]</text>
<text text-anchor="start" x="342" y="-476.3" font-family="Helvetica,sans-Serif" font-size="14.00">class = setosa</text>
</g>
<!-- 0&#45;&gt;1 -->
<g id="edge1" class="edge"><title>0&#45;&gt;1</title>
<path fill="none" stroke="black" d="M441.244,-579.907C433.549,-568.652 425.183,-556.418 417.449,-545.106"/>
<polygon fill="black" stroke="black" points="420.212,-542.946 411.678,-536.667 414.433,-546.897 420.212,-542.946"/>
<text text-anchor="middle" x="407.064" y="-557.537" font-family="Helvetica,sans-Serif" font-size="14.00">True</text>
</g>
<!-- 2 -->
<g id="node3" class="node"><title>2</title>
<path fill="#ebe0fb" stroke="black" d="M617.5,-544C617.5,-544 480.5,-544 480.5,-544 474.5,-544 468.5,-538 468.5,-532 468.5,-532 468.5,-473 468.5,-473 468.5,-467 474.5,-461 480.5,-461 480.5,-461 617.5,-461 617.5,-461 623.5,-461 629.5,-467 629.5,-473 629.5,-473 629.5,-532 629.5,-532 629.5,-538 623.5,-544 617.5,-544"/>
<text text-anchor="start" x="476.5" y="-528.8" font-family="Helvetica,sans-Serif" font-size="14.00">petal width (cm) ≤ 1.75</text>
<text text-anchor="start" x="511" y="-513.8" font-family="Helvetica,sans-Serif" font-size="14.00">gini = 0.496</text>
<text text-anchor="start" x="505" y="-498.8" font-family="Helvetica,sans-Serif" font-size="14.00">samples = 81</text>
<text text-anchor="start" x="491.5" y="-483.8" font-family="Helvetica,sans-Serif" font-size="14.00">value = [0, 37, 44]</text>
<text text-anchor="start" x="497.5" y="-468.8" font-family="Helvetica,sans-Serif" font-size="14.00">class = virginica</text>
</g>
<!-- 0&#45;&gt;2 -->
<g id="edge2" class="edge"><title>0&#45;&gt;2</title>
<path fill="none" stroke="black" d="M496.756,-579.907C502.837,-571.014 509.336,-561.509 515.611,-552.331"/>
<polygon fill="black" stroke="black" points="518.538,-554.251 521.293,-544.021 512.76,-550.3 518.538,-554.251"/>
<text text-anchor="middle" x="525.908" y="-564.891" font-family="Helvetica,sans-Serif" font-size="14.00">False</text>
</g>
<!-- 3 -->
<g id="node4" class="node"><title>3</title>
<path fill="#4fe88f" stroke="black" d="M504.5,-425C504.5,-425 361.5,-425 361.5,-425 355.5,-425 349.5,-419 349.5,-413 349.5,-413 349.5,-354 349.5,-354 349.5,-348 355.5,-342 361.5,-342 361.5,-342 504.5,-342 504.5,-342 510.5,-342 516.5,-348 516.5,-354 516.5,-354 516.5,-413 516.5,-413 516.5,-419 510.5,-425 504.5,-425"/>
<text text-anchor="start" x="357.5" y="-409.8" font-family="Helvetica,sans-Serif" font-size="14.00">petal length (cm) ≤ 4.95</text>
<text text-anchor="start" x="399.5" y="-394.8" font-family="Helvetica,sans-Serif" font-size="14.00">gini = 0.18</text>
<text text-anchor="start" x="389" y="-379.8" font-family="Helvetica,sans-Serif" font-size="14.00">samples = 40</text>
<text text-anchor="start" x="379.5" y="-364.8" font-family="Helvetica,sans-Serif" font-size="14.00">value = [0, 36, 4]</text>
<text text-anchor="start" x="377" y="-349.8" font-family="Helvetica,sans-Serif" font-size="14.00">class = versicolor</text>
</g>
<!-- 2&#45;&gt;3 -->
<g id="edge3" class="edge"><title>2&#45;&gt;3</title>
<path fill="none" stroke="black" d="M508.754,-460.907C499.577,-451.651 489.743,-441.732 480.301,-432.209"/>
<polygon fill="black" stroke="black" points="482.701,-429.658 473.174,-425.021 477.73,-434.586 482.701,-429.658"/>
</g>
<!-- 12 -->
<g id="node13" class="node"><title>12</title>
<path fill="#843ee6" stroke="black" d="M736.5,-425C736.5,-425 593.5,-425 593.5,-425 587.5,-425 581.5,-419 581.5,-413 581.5,-413 581.5,-354 581.5,-354 581.5,-348 587.5,-342 593.5,-342 593.5,-342 736.5,-342 736.5,-342 742.5,-342 748.5,-348 748.5,-354 748.5,-354 748.5,-413 748.5,-413 748.5,-419 742.5,-425 736.5,-425"/>
<text text-anchor="start" x="589.5" y="-409.8" font-family="Helvetica,sans-Serif" font-size="14.00">petal length (cm) ≤ 4.85</text>
<text text-anchor="start" x="627" y="-394.8" font-family="Helvetica,sans-Serif" font-size="14.00">gini = 0.048</text>
<text text-anchor="start" x="621" y="-379.8" font-family="Helvetica,sans-Serif" font-size="14.00">samples = 41</text>
<text text-anchor="start" x="611.5" y="-364.8" font-family="Helvetica,sans-Serif" font-size="14.00">value = [0, 1, 40]</text>
<text text-anchor="start" x="613.5" y="-349.8" font-family="Helvetica,sans-Serif" font-size="14.00">class = virginica</text>
</g>
<!-- 2&#45;&gt;12 -->
<g id="edge12" class="edge"><title>2&#45;&gt;12</title>
<path fill="none" stroke="black" d="M589.246,-460.907C598.423,-451.651 608.257,-441.732 617.699,-432.209"/>
<polygon fill="black" stroke="black" points="620.27,-434.586 624.826,-425.021 615.299,-429.658 620.27,-434.586"/>
</g>
<!-- 4 -->
<g id="node5" class="node"><title>4</title>
<path fill="#3fe685" stroke="black" d="M274.5,-306C274.5,-306 137.5,-306 137.5,-306 131.5,-306 125.5,-300 125.5,-294 125.5,-294 125.5,-235 125.5,-235 125.5,-229 131.5,-223 137.5,-223 137.5,-223 274.5,-223 274.5,-223 280.5,-223 286.5,-229 286.5,-235 286.5,-235 286.5,-294 286.5,-294 286.5,-300 280.5,-306 274.5,-306"/>
<text text-anchor="start" x="133.5" y="-290.8" font-family="Helvetica,sans-Serif" font-size="14.00">petal width (cm) ≤ 1.65</text>
<text text-anchor="start" x="168" y="-275.8" font-family="Helvetica,sans-Serif" font-size="14.00">gini = 0.056</text>
<text text-anchor="start" x="162" y="-260.8" font-family="Helvetica,sans-Serif" font-size="14.00">samples = 35</text>
<text text-anchor="start" x="152.5" y="-245.8" font-family="Helvetica,sans-Serif" font-size="14.00">value = [0, 34, 1]</text>
<text text-anchor="start" x="150" y="-230.8" font-family="Helvetica,sans-Serif" font-size="14.00">class = versicolor</text>
</g>
<!-- 3&#45;&gt;4 -->
<g id="edge4" class="edge"><title>3&#45;&gt;4</title>
<path fill="none" stroke="black" d="M354.243,-341.907C334.699,-331.834 313.634,-320.977 293.692,-310.698"/>
<polygon fill="black" stroke="black" points="295.11,-307.491 284.617,-306.021 291.903,-313.713 295.11,-307.491"/>
</g>
<!-- 7 -->
<g id="node8" class="node"><title>7</title>
<path fill="#d5bdf6" stroke="black" d="M501.5,-306C501.5,-306 364.5,-306 364.5,-306 358.5,-306 352.5,-300 352.5,-294 352.5,-294 352.5,-235 352.5,-235 352.5,-229 358.5,-223 364.5,-223 364.5,-223 501.5,-223 501.5,-223 507.5,-223 513.5,-229 513.5,-235 513.5,-235 513.5,-294 513.5,-294 513.5,-300 507.5,-306 501.5,-306"/>
<text text-anchor="start" x="360.5" y="-290.8" font-family="Helvetica,sans-Serif" font-size="14.00">petal width (cm) ≤ 1.55</text>
<text text-anchor="start" x="399.5" y="-275.8" font-family="Helvetica,sans-Serif" font-size="14.00">gini = 0.48</text>
<text text-anchor="start" x="393.5" y="-260.8" font-family="Helvetica,sans-Serif" font-size="14.00">samples = 5</text>
<text text-anchor="start" x="383.5" y="-245.8" font-family="Helvetica,sans-Serif" font-size="14.00">value = [0, 2, 3]</text>
<text text-anchor="start" x="381.5" y="-230.8" font-family="Helvetica,sans-Serif" font-size="14.00">class = virginica</text>
</g>
<!-- 3&#45;&gt;7 -->
<g id="edge7" class="edge"><title>3&#45;&gt;7</title>
<path fill="none" stroke="black" d="M433,-341.907C433,-333.649 433,-324.864 433,-316.302"/>
<polygon fill="black" stroke="black" points="436.5,-316.021 433,-306.021 429.5,-316.021 436.5,-316.021"/>
</g>
<!-- 5 -->
<g id="node6" class="node"><title>5</title>
<path fill="#39e581" stroke="black" d="M116,-179.5C116,-179.5 12,-179.5 12,-179.5 6,-179.5 0,-173.5 0,-167.5 0,-167.5 0,-123.5 0,-123.5 0,-117.5 6,-111.5 12,-111.5 12,-111.5 116,-111.5 116,-111.5 122,-111.5 128,-117.5 128,-123.5 128,-123.5 128,-167.5 128,-167.5 128,-173.5 122,-179.5 116,-179.5"/>
<text text-anchor="start" x="34.5" y="-164.3" font-family="Helvetica,sans-Serif" font-size="14.00">gini = 0.0</text>
<text text-anchor="start" x="20" y="-149.3" font-family="Helvetica,sans-Serif" font-size="14.00">samples = 34</text>
<text text-anchor="start" x="10.5" y="-134.3" font-family="Helvetica,sans-Serif" font-size="14.00">value = [0, 34, 0]</text>
<text text-anchor="start" x="8" y="-119.3" font-family="Helvetica,sans-Serif" font-size="14.00">class = versicolor</text>
</g>
<!-- 4&#45;&gt;5 -->
<g id="edge5" class="edge"><title>4&#45;&gt;5</title>
<path fill="none" stroke="black" d="M156.734,-222.907C142.27,-210.99 126.475,-197.976 112.086,-186.12"/>
<polygon fill="black" stroke="black" points="114.197,-183.325 104.254,-179.667 109.746,-188.727 114.197,-183.325"/>
</g>
<!-- 6 -->
<g id="node7" class="node"><title>6</title>
<path fill="#8139e5" stroke="black" d="M253.5,-179.5C253.5,-179.5 158.5,-179.5 158.5,-179.5 152.5,-179.5 146.5,-173.5 146.5,-167.5 146.5,-167.5 146.5,-123.5 146.5,-123.5 146.5,-117.5 152.5,-111.5 158.5,-111.5 158.5,-111.5 253.5,-111.5 253.5,-111.5 259.5,-111.5 265.5,-117.5 265.5,-123.5 265.5,-123.5 265.5,-167.5 265.5,-167.5 265.5,-173.5 259.5,-179.5 253.5,-179.5"/>
<text text-anchor="start" x="176.5" y="-164.3" font-family="Helvetica,sans-Serif" font-size="14.00">gini = 0.0</text>
<text text-anchor="start" x="166.5" y="-149.3" font-family="Helvetica,sans-Serif" font-size="14.00">samples = 1</text>
<text text-anchor="start" x="156.5" y="-134.3" font-family="Helvetica,sans-Serif" font-size="14.00">value = [0, 0, 1]</text>
<text text-anchor="start" x="154.5" y="-119.3" font-family="Helvetica,sans-Serif" font-size="14.00">class = virginica</text>
</g>
<!-- 4&#45;&gt;6 -->
<g id="edge6" class="edge"><title>4&#45;&gt;6</title>
<path fill="none" stroke="black" d="M206,-222.907C206,-212.204 206,-200.615 206,-189.776"/>
<polygon fill="black" stroke="black" points="209.5,-189.667 206,-179.667 202.5,-189.667 209.5,-189.667"/>
</g>
<!-- 8 -->
<g id="node9" class="node"><title>8</title>
<path fill="#8139e5" stroke="black" d="M390.5,-179.5C390.5,-179.5 295.5,-179.5 295.5,-179.5 289.5,-179.5 283.5,-173.5 283.5,-167.5 283.5,-167.5 283.5,-123.5 283.5,-123.5 283.5,-117.5 289.5,-111.5 295.5,-111.5 295.5,-111.5 390.5,-111.5 390.5,-111.5 396.5,-111.5 402.5,-117.5 402.5,-123.5 402.5,-123.5 402.5,-167.5 402.5,-167.5 402.5,-173.5 396.5,-179.5 390.5,-179.5"/>
<text text-anchor="start" x="313.5" y="-164.3" font-family="Helvetica,sans-Serif" font-size="14.00">gini = 0.0</text>
<text text-anchor="start" x="303.5" y="-149.3" font-family="Helvetica,sans-Serif" font-size="14.00">samples = 2</text>
<text text-anchor="start" x="293.5" y="-134.3" font-family="Helvetica,sans-Serif" font-size="14.00">value = [0, 0, 2]</text>
<text text-anchor="start" x="291.5" y="-119.3" font-family="Helvetica,sans-Serif" font-size="14.00">class = virginica</text>
</g>
<!-- 7&#45;&gt;8 -->
<g id="edge8" class="edge"><title>7&#45;&gt;8</title>
<path fill="none" stroke="black" d="M401.775,-222.907C393.032,-211.542 383.522,-199.178 374.749,-187.774"/>
<polygon fill="black" stroke="black" points="377.384,-185.459 368.513,-179.667 371.836,-189.727 377.384,-185.459"/>
</g>
<!-- 9 -->
<g id="node10" class="node"><title>9</title>
<path fill="#9cf2c0" stroke="black" d="M575.5,-187C575.5,-187 432.5,-187 432.5,-187 426.5,-187 420.5,-181 420.5,-175 420.5,-175 420.5,-116 420.5,-116 420.5,-110 426.5,-104 432.5,-104 432.5,-104 575.5,-104 575.5,-104 581.5,-104 587.5,-110 587.5,-116 587.5,-116 587.5,-175 587.5,-175 587.5,-181 581.5,-187 575.5,-187"/>
<text text-anchor="start" x="428.5" y="-171.8" font-family="Helvetica,sans-Serif" font-size="14.00">petal length (cm) ≤ 5.45</text>
<text text-anchor="start" x="466" y="-156.8" font-family="Helvetica,sans-Serif" font-size="14.00">gini = 0.444</text>
<text text-anchor="start" x="464.5" y="-141.8" font-family="Helvetica,sans-Serif" font-size="14.00">samples = 3</text>
<text text-anchor="start" x="454.5" y="-126.8" font-family="Helvetica,sans-Serif" font-size="14.00">value = [0, 2, 1]</text>
<text text-anchor="start" x="448" y="-111.8" font-family="Helvetica,sans-Serif" font-size="14.00">class = versicolor</text>
</g>
<!-- 7&#45;&gt;9 -->
<g id="edge9" class="edge"><title>7&#45;&gt;9</title>
<path fill="none" stroke="black" d="M457.633,-222.907C462.975,-214.105 468.68,-204.703 474.197,-195.612"/>
<polygon fill="black" stroke="black" points="477.215,-197.386 479.41,-187.021 471.23,-193.754 477.215,-197.386"/>
</g>
<!-- 10 -->
<g id="node11" class="node"><title>10</title>
<path fill="#39e581" stroke="black" d="M485,-68C485,-68 381,-68 381,-68 375,-68 369,-62 369,-56 369,-56 369,-12 369,-12 369,-6 375,-0 381,-0 381,-0 485,-0 485,-0 491,-0 497,-6 497,-12 497,-12 497,-56 497,-56 497,-62 491,-68 485,-68"/>
<text text-anchor="start" x="403.5" y="-52.8" font-family="Helvetica,sans-Serif" font-size="14.00">gini = 0.0</text>
<text text-anchor="start" x="393.5" y="-37.8" font-family="Helvetica,sans-Serif" font-size="14.00">samples = 2</text>
<text text-anchor="start" x="383.5" y="-22.8" font-family="Helvetica,sans-Serif" font-size="14.00">value = [0, 2, 0]</text>
<text text-anchor="start" x="377" y="-7.8" font-family="Helvetica,sans-Serif" font-size="14.00">class = versicolor</text>
</g>
<!-- 9&#45;&gt;10 -->
<g id="edge10" class="edge"><title>9&#45;&gt;10</title>
<path fill="none" stroke="black" d="M477.562,-103.726C471.885,-94.9703 465.876,-85.7032 460.171,-76.9051"/>
<polygon fill="black" stroke="black" points="462.969,-74.786 454.592,-68.2996 457.095,-78.5943 462.969,-74.786"/>
</g>
<!-- 11 -->
<g id="node12" class="node"><title>11</title>
<path fill="#8139e5" stroke="black" d="M622.5,-68C622.5,-68 527.5,-68 527.5,-68 521.5,-68 515.5,-62 515.5,-56 515.5,-56 515.5,-12 515.5,-12 515.5,-6 521.5,-0 527.5,-0 527.5,-0 622.5,-0 622.5,-0 628.5,-0 634.5,-6 634.5,-12 634.5,-12 634.5,-56 634.5,-56 634.5,-62 628.5,-68 622.5,-68"/>
<text text-anchor="start" x="545.5" y="-52.8" font-family="Helvetica,sans-Serif" font-size="14.00">gini = 0.0</text>
<text text-anchor="start" x="535.5" y="-37.8" font-family="Helvetica,sans-Serif" font-size="14.00">samples = 1</text>
<text text-anchor="start" x="525.5" y="-22.8" font-family="Helvetica,sans-Serif" font-size="14.00">value = [0, 0, 1]</text>
<text text-anchor="start" x="523.5" y="-7.8" font-family="Helvetica,sans-Serif" font-size="14.00">class = virginica</text>
</g>
<!-- 9&#45;&gt;11 -->
<g id="edge11" class="edge"><title>9&#45;&gt;11</title>
<path fill="none" stroke="black" d="M530.438,-103.726C536.115,-94.9703 542.124,-85.7032 547.829,-76.9051"/>
<polygon fill="black" stroke="black" points="550.905,-78.5943 553.408,-68.2996 545.031,-74.786 550.905,-78.5943"/>
</g>
<!-- 13 -->
<g id="node14" class="node"><title>13</title>
<path fill="#ffffff" stroke="black" d="M731.5,-306C731.5,-306 598.5,-306 598.5,-306 592.5,-306 586.5,-300 586.5,-294 586.5,-294 586.5,-235 586.5,-235 586.5,-229 592.5,-223 598.5,-223 598.5,-223 731.5,-223 731.5,-223 737.5,-223 743.5,-229 743.5,-235 743.5,-235 743.5,-294 743.5,-294 743.5,-300 737.5,-306 731.5,-306"/>
<text text-anchor="start" x="594.5" y="-290.8" font-family="Helvetica,sans-Serif" font-size="14.00">sepal width (cm) ≤ 3.1</text>
<text text-anchor="start" x="635.5" y="-275.8" font-family="Helvetica,sans-Serif" font-size="14.00">gini = 0.5</text>
<text text-anchor="start" x="625.5" y="-260.8" font-family="Helvetica,sans-Serif" font-size="14.00">samples = 2</text>
<text text-anchor="start" x="615.5" y="-245.8" font-family="Helvetica,sans-Serif" font-size="14.00">value = [0, 1, 1]</text>
<text text-anchor="start" x="609" y="-230.8" font-family="Helvetica,sans-Serif" font-size="14.00">class = versicolor</text>
</g>
<!-- 12&#45;&gt;13 -->
<g id="edge13" class="edge"><title>12&#45;&gt;13</title>
<path fill="none" stroke="black" d="M665,-341.907C665,-333.649 665,-324.864 665,-316.302"/>
<polygon fill="black" stroke="black" points="668.5,-316.021 665,-306.021 661.5,-316.021 668.5,-316.021"/>
</g>
<!-- 16 -->
<g id="node17" class="node"><title>16</title>
<path fill="#8139e5" stroke="black" d="M872.5,-298.5C872.5,-298.5 773.5,-298.5 773.5,-298.5 767.5,-298.5 761.5,-292.5 761.5,-286.5 761.5,-286.5 761.5,-242.5 761.5,-242.5 761.5,-236.5 767.5,-230.5 773.5,-230.5 773.5,-230.5 872.5,-230.5 872.5,-230.5 878.5,-230.5 884.5,-236.5 884.5,-242.5 884.5,-242.5 884.5,-286.5 884.5,-286.5 884.5,-292.5 878.5,-298.5 872.5,-298.5"/>
<text text-anchor="start" x="793.5" y="-283.3" font-family="Helvetica,sans-Serif" font-size="14.00">gini = 0.0</text>
<text text-anchor="start" x="779" y="-268.3" font-family="Helvetica,sans-Serif" font-size="14.00">samples = 39</text>
<text text-anchor="start" x="769.5" y="-253.3" font-family="Helvetica,sans-Serif" font-size="14.00">value = [0, 0, 39]</text>
<text text-anchor="start" x="771.5" y="-238.3" font-family="Helvetica,sans-Serif" font-size="14.00">class = virginica</text>
</g>
<!-- 12&#45;&gt;16 -->
<g id="edge16" class="edge"><title>12&#45;&gt;16</title>
<path fill="none" stroke="black" d="M719.817,-341.907C736.06,-329.88 753.811,-316.735 769.941,-304.791"/>
<polygon fill="black" stroke="black" points="772.257,-307.431 778.21,-298.667 768.091,-301.805 772.257,-307.431"/>
</g>
<!-- 14 -->
<g id="node15" class="node"><title>14</title>
<path fill="#8139e5" stroke="black" d="M712.5,-179.5C712.5,-179.5 617.5,-179.5 617.5,-179.5 611.5,-179.5 605.5,-173.5 605.5,-167.5 605.5,-167.5 605.5,-123.5 605.5,-123.5 605.5,-117.5 611.5,-111.5 617.5,-111.5 617.5,-111.5 712.5,-111.5 712.5,-111.5 718.5,-111.5 724.5,-117.5 724.5,-123.5 724.5,-123.5 724.5,-167.5 724.5,-167.5 724.5,-173.5 718.5,-179.5 712.5,-179.5"/>
<text text-anchor="start" x="635.5" y="-164.3" font-family="Helvetica,sans-Serif" font-size="14.00">gini = 0.0</text>
<text text-anchor="start" x="625.5" y="-149.3" font-family="Helvetica,sans-Serif" font-size="14.00">samples = 1</text>
<text text-anchor="start" x="615.5" y="-134.3" font-family="Helvetica,sans-Serif" font-size="14.00">value = [0, 0, 1]</text>
<text text-anchor="start" x="613.5" y="-119.3" font-family="Helvetica,sans-Serif" font-size="14.00">class = virginica</text>
</g>
<!-- 13&#45;&gt;14 -->
<g id="edge14" class="edge"><title>13&#45;&gt;14</title>
<path fill="none" stroke="black" d="M665,-222.907C665,-212.204 665,-200.615 665,-189.776"/>
<polygon fill="black" stroke="black" points="668.5,-189.667 665,-179.667 661.5,-189.667 668.5,-189.667"/>
</g>
<!-- 15 -->
<g id="node16" class="node"><title>15</title>
<path fill="#39e581" stroke="black" d="M859,-179.5C859,-179.5 755,-179.5 755,-179.5 749,-179.5 743,-173.5 743,-167.5 743,-167.5 743,-123.5 743,-123.5 743,-117.5 749,-111.5 755,-111.5 755,-111.5 859,-111.5 859,-111.5 865,-111.5 871,-117.5 871,-123.5 871,-123.5 871,-167.5 871,-167.5 871,-173.5 865,-179.5 859,-179.5"/>
<text text-anchor="start" x="777.5" y="-164.3" font-family="Helvetica,sans-Serif" font-size="14.00">gini = 0.0</text>
<text text-anchor="start" x="767.5" y="-149.3" font-family="Helvetica,sans-Serif" font-size="14.00">samples = 1</text>
<text text-anchor="start" x="757.5" y="-134.3" font-family="Helvetica,sans-Serif" font-size="14.00">value = [0, 1, 0]</text>
<text text-anchor="start" x="751" y="-119.3" font-family="Helvetica,sans-Serif" font-size="14.00">class = versicolor</text>
</g>
<!-- 13&#45;&gt;15 -->
<g id="edge15" class="edge"><title>13&#45;&gt;15</title>
<path fill="none" stroke="black" d="M714.266,-222.907C728.73,-210.99 744.525,-197.976 758.914,-186.12"/>
<polygon fill="black" stroke="black" points="761.254,-188.727 766.746,-179.667 756.803,-183.325 761.254,-188.727"/>
</g>
</g>
</svg>
