<?xml version="1.0" encoding="UTF-8" standalone="no"?>
<!DOCTYPE svg PUBLIC "-//W3C//DTD SVG 1.1//EN"
 "http://www.w3.org/Graphics/SVG/1.1/DTD/svg11.dtd">
<!-- Generated by graphviz version 2.38.0 (20140413.2041)
 -->
<!-- Title: Tree Pages: 1 -->
<svg width="905pt" height="671pt"
 viewBox="0.00 0.00 904.50 671.00" xmlns="http://www.w3.org/2000/svg" xmlns:xlink="http://www.w3.org/1999/xlink">
<g id="graph0" class="graph" transform="scale(1 1) rotate(0) translate(4 667)">
<title>Tree</title>
<polygon fill="white" stroke="none" points="-4,4 -4,-667 900.5,-667 900.5,4 -4,4"/>
<!-- 0 -->
<g id="node1" class="node"><title>0</title>
<path fill="#f7f3fd" stroke="black" d="M543.5,-663C543.5,-663 400.5,-663 400.5,-663 394.5,-663 388.5,-657 388.5,-651 388.5,-651 388.5,-592 388.5,-592 388.5,-586 394.5,-580 400.5,-580 400.5,-580 543.5,-580 543.5,-580 549.5,-580 555.5,-586 555.5,-592 555.5,-592 555.5,-651 555.5,-651 555.5,-657 549.5,-663 543.5,-663"/>
<text text-anchor="start" x="396.5" y="-647.8" font-family="Helvetica,sans-Serif" font-size="14.00">petal length (cm) ≤ 2.35</text>
<text text-anchor="start" x="434" y="-632.8" font-family="Helvetica,sans-Serif" font-size="14.00">gini = 0.665</text>
<text text-anchor="start" x="424" y="-617.8" font-family="Helvetica,sans-Serif" font-size="14.00">samples = 120</text>
<text text-anchor="start" x="410" y="-602.8" font-family="Helvetica,sans-Serif" font-size="14.00">value = [39, 37, 44]</text>
<text text-anchor="start" x="420.5" y="-587.8" font-family="Helvetica,sans-Serif" font-size="14.00">class = virginica</text>
</g>
<!-- 1 -->
<g id="node2" class="node"><title>1</title>
<path fill="#e58139" stroke="black" d="M441.5,-536.5C441.5,-536.5 342.5,-536.5 342.5,-536.5 336.5,-536.5 330.5,-530.5 330.5,-524.5 330.5,-524.5 330.5,-480.5 330.5,-480.5 330.5,-474.5 336.5,-468.5 342.5,-468.5 342.5,-468.5 441.5,-468.5 441.5,-468.5 447.5,-468.5 453.5,-474.5 453.5,-480.5 453.5,-480.5 453.5,-524.5 453.5,-524.5 453.5,-530.5 447.5,-536.5 441.5,-536.5"/>
<text text-anchor="start" x="362.5" y="-521.3" font-family="Helvetica,sans-Serif" font-size="14.00">gini = 0.0</text>
<text text-anchor="start" x="348" y="-506.3" font-family="Helvetica,sans-Serif" font-size="14.00">samples = 39</text>
<text text-anchor="start" x="338.5" y="-491.3" font-family="Helvetica,sans-Serif" font-size="14.00">value = [39, 0, 0]</text>
<text text-anchor="start" x="345" y="-476.3" font-family="Helvetica,sans-Serif" font-size="14.00">class = setosa</text>
</g>
<!-- 0&#45;&gt;1 -->
<g id="edge1" class="edge"><title>0&#45;&gt;1</title>
<path fill="none" stroke="black" d="M444.244,-579.907C436.549,-568.652 428.183,-556.418 420.449,-545.106"/>
<polygon fill="black" stroke="black" points="423.212,-542.946 414.678,-536.667 417.433,-546.897 423.212,-542.946"/>
<text text-anchor="middle" x="410.064" y="-557.537" font-family="Helvetica,sans-Serif" font-size="14.00">True</text>
</g>
<!-- 2 -->
<g id="node3" class="node"><title>2</title>
<path fill="#ebe0fb" stroke="black" d="M620.5,-544C620.5,-544 483.5,-544 483.5,-544 477.5,-544 471.5,-538 471.5,-532 471.5,-532 471.5,-473 471.5,-473 471.5,-467 477.5,-461 483.5,-461 483.5,-461 620.5,-461 620.5,-461 626.5,-461 632.5,-467 632.5,-473 632.5,-473 632.5,-532 632.5,-532 632.5,-538 626.5,-544 620.5,-544"/>
<text text-anchor="start" x="479.5" y="-528.8" font-family="Helvetica,sans-Serif" font-size="14.00">petal width (cm) ≤ 1.75</text>
<text text-anchor="start" x="514" y="-513.8" font-family="Helvetica,sans-Serif" font-size="14.00">gini = 0.496</text>
<text text-anchor="start" x="508" y="-498.8" font-family="Helvetica,sans-Serif" font-size="14.00">samples = 81</text>
<text text-anchor="start" x="494.5" y="-483.8" font-family="Helvetica,sans-Serif" font-size="14.00">value = [0, 37, 44]</text>
<text text-anchor="start" x="500.5" y="-468.8" font-family="Helvetica,sans-Serif" font-size="14.00">class = virginica</text>
</g>
<!-- 0&#45;&gt;2 -->
<g id="edge2" class="edge"><title>0&#45;&gt;2</title>
<path fill="none" stroke="black" d="M499.756,-579.907C505.837,-571.014 512.336,-561.509 518.611,-552.331"/>
<polygon fill="black" stroke="black" points="521.538,-554.251 524.293,-544.021 515.76,-550.3 521.538,-554.251"/>
<text text-anchor="middle" x="528.908" y="-564.891" font-family="Helvetica,sans-Serif" font-size="14.00">False</text>
</g>
<!-- 3 -->
<g id="node4" class="node"><title>3</title>
<path fill="#4fe88f" stroke="black" d="M506.5,-425C506.5,-425 363.5,-425 363.5,-425 357.5,-425 351.5,-419 351.5,-413 351.5,-413 351.5,-354 351.5,-354 351.5,-348 357.5,-342 363.5,-342 363.5,-342 506.5,-342 506.5,-342 512.5,-342 518.5,-348 518.5,-354 518.5,-354 518.5,-413 518.5,-413 518.5,-419 512.5,-425 506.5,-425"/>
<text text-anchor="start" x="359.5" y="-409.8" font-family="Helvetica,sans-Serif" font-size="14.00">petal length (cm) ≤ 4.95</text>
<text text-anchor="start" x="401.5" y="-394.8" font-family="Helvetica,sans-Serif" font-size="14.00">gini = 0.18</text>
<text text-anchor="start" x="391" y="-379.8" font-family="Helvetica,sans-Serif" font-size="14.00">samples = 40</text>
<text text-anchor="start" x="381.5" y="-364.8" font-family="Helvetica,sans-Serif" font-size="14.00">value = [0, 36, 4]</text>
<text text-anchor="start" x="379" y="-349.8" font-family="Helvetica,sans-Serif" font-size="14.00">class = versicolor</text>
</g>
<!-- 2&#45;&gt;3 -->
<g id="edge3" class="edge"><title>2&#45;&gt;3</title>
<path fill="none" stroke="black" d="M511.407,-460.907C502.151,-451.651 492.232,-441.732 482.709,-432.209"/>
<polygon fill="black" stroke="black" points="485.067,-429.617 475.521,-425.021 480.117,-434.567 485.067,-429.617"/>
</g>
<!-- 12 -->
<g id="node13" class="node"><title>12</title>
<path fill="#843ee6" stroke="black" d="M741.5,-425C741.5,-425 598.5,-425 598.5,-425 592.5,-425 586.5,-419 586.5,-413 586.5,-413 586.5,-354 586.5,-354 586.5,-348 592.5,-342 598.5,-342 598.5,-342 741.5,-342 741.5,-342 747.5,-342 753.5,-348 753.5,-354 753.5,-354 753.5,-413 753.5,-413 753.5,-419 747.5,-425 741.5,-425"/>
<text text-anchor="start" x="594.5" y="-409.8" font-family="Helvetica,sans-Serif" font-size="14.00">petal length (cm) ≤ 4.85</text>
<text text-anchor="start" x="632" y="-394.8" font-family="Helvetica,sans-Serif" font-size="14.00">gini = 0.048</text>
<text text-anchor="start" x="626" y="-379.8" font-family="Helvetica,sans-Serif" font-size="14.00">samples = 41</text>
<text text-anchor="start" x="616.5" y="-364.8" font-family="Helvetica,sans-Serif" font-size="14.00">value = [0, 1, 40]</text>
<text text-anchor="start" x="618.5" y="-349.8" font-family="Helvetica,sans-Serif" font-size="14.00">class = virginica</text>
</g>
<!-- 2&#45;&gt;12 -->
<g id="edge12" class="edge"><title>2&#45;&gt;12</title>
<path fill="none" stroke="black" d="M592.94,-460.907C602.275,-451.651 612.279,-441.732 621.883,-432.209"/>
<polygon fill="black" stroke="black" points="624.496,-434.547 629.133,-425.021 619.567,-429.576 624.496,-434.547"/>
</g>
<!-- 4 -->
<g id="node5" class="node"><title>4</title>
<path fill="#3fe685" stroke="black" d="M274.5,-306C274.5,-306 137.5,-306 137.5,-306 131.5,-306 125.5,-300 125.5,-294 125.5,-294 125.5,-235 125.5,-235 125.5,-229 131.5,-223 137.5,-223 137.5,-223 274.5,-223 274.5,-223 280.5,-223 286.5,-229 286.5,-235 286.5,-235 286.5,-294 286.5,-294 286.5,-300 280.5,-306 274.5,-306"/>
<text text-anchor="start" x="133.5" y="-290.8" font-family="Helvetica,sans-Serif" font-size="14.00">petal width (cm) ≤ 1.65</text>
<text text-anchor="start" x="168" y="-275.8" font-family="Helvetica,sans-Serif" font-size="14.00">gini = 0.056</text>
<text text-anchor="start" x="162" y="-260.8" font-family="Helvetica,sans-Serif" font-size="14.00">samples = 35</text>
<text text-anchor="start" x="152.5" y="-245.8" font-family="Helvetica,sans-Serif" font-size="14.00">value = [0, 34, 1]</text>
<text text-anchor="start" x="150" y="-230.8" font-family="Helvetica,sans-Serif" font-size="14.00">class = versicolor</text>
</g>
<!-- 3&#45;&gt;4 -->
<g id="edge4" class="edge"><title>3&#45;&gt;4</title>
<path fill="none" stroke="black" d="M355.55,-341.907C335.833,-331.834 314.583,-320.977 294.464,-310.698"/>
<polygon fill="black" stroke="black" points="295.807,-307.454 285.31,-306.021 292.623,-313.687 295.807,-307.454"/>
</g>
<!-- 7 -->
<g id="node8" class="node"><title>7</title>
<path fill="#d5bdf6" stroke="black" d="M503.5,-306C503.5,-306 366.5,-306 366.5,-306 360.5,-306 354.5,-300 354.5,-294 354.5,-294 354.5,-235 354.5,-235 354.5,-229 360.5,-223 366.5,-223 366.5,-223 503.5,-223 503.5,-223 509.5,-223 515.5,-229 515.5,-235 515.5,-235 515.5,-294 515.5,-294 515.5,-300 509.5,-306 503.5,-306"/>
<text text-anchor="start" x="362.5" y="-290.8" font-family="Helvetica,sans-Serif" font-size="14.00">petal width (cm) ≤ 1.55</text>
<text text-anchor="start" x="401.5" y="-275.8" font-family="Helvetica,sans-Serif" font-size="14.00">gini = 0.48</text>
<text text-anchor="start" x="395.5" y="-260.8" font-family="Helvetica,sans-Serif" font-size="14.00">samples = 5</text>
<text text-anchor="start" x="385.5" y="-245.8" font-family="Helvetica,sans-Serif" font-size="14.00">value = [0, 2, 3]</text>
<text text-anchor="start" x="383.5" y="-230.8" font-family="Helvetica,sans-Serif" font-size="14.00">class = virginica</text>
</g>
<!-- 3&#45;&gt;7 -->
<g id="edge7" class="edge"><title>3&#45;&gt;7</title>
<path fill="none" stroke="black" d="M435,-341.907C435,-333.649 435,-324.864 435,-316.302"/>
<polygon fill="black" stroke="black" points="438.5,-316.021 435,-306.021 431.5,-316.021 438.5,-316.021"/>
</g>
<!-- 5 -->
<g id="node6" class="node"><title>5</title>
<path fill="#39e581" stroke="black" d="M116,-179.5C116,-179.5 12,-179.5 12,-179.5 6,-179.5 0,-173.5 0,-167.5 0,-167.5 0,-123.5 0,-123.5 0,-117.5 6,-111.5 12,-111.5 12,-111.5 116,-111.5 116,-111.5 122,-111.5 128,-117.5 128,-123.5 128,-123.5 128,-167.5 128,-167.5 128,-173.5 122,-179.5 116,-179.5"/>
<text text-anchor="start" x="34.5" y="-164.3" font-family="Helvetica,sans-Serif" font-size="14.00">gini = 0.0</text>
<text text-anchor="start" x="20" y="-149.3" font-family="Helvetica,sans-Serif" font-size="14.00">samples = 34</text>
<text text-anchor="start" x="10.5" y="-134.3" font-family="Helvetica,sans-Serif" font-size="14.00">value = [0, 34, 0]</text>
<text text-anchor="start" x="8" y="-119.3" font-family="Helvetica,sans-Serif" font-size="14.00">class = versicolor</text>
</g>
<!-- 4&#45;&gt;5 -->
<g id="edge5" class="edge"><title>4&#45;&gt;5</title>
<path fill="none" stroke="black" d="M156.734,-222.907C142.27,-210.99 126.475,-197.976 112.086,-186.12"/>
<polygon fill="black" stroke="black" points="114.197,-183.325 104.254,-179.667 109.746,-188.727 114.197,-183.325"/>
</g>
<!-- 6 -->
<g id="node7" class="node"><title>6</title>
<path fill="#8139e5" stroke="black" d="M253.5,-179.5C253.5,-179.5 158.5,-179.5 158.5,-179.5 152.5,-179.5 146.5,-173.5 146.5,-167.5 146.5,-167.5 146.5,-123.5 146.5,-123.5 146.5,-117.5 152.5,-111.5 158.5,-111.5 158.5,-111.5 253.5,-111.5 253.5,-111.5 259.5,-111.5 265.5,-117.5 265.5,-123.5 265.5,-123.5 265.5,-167.5 265.5,-167.5 265.5,-173.5 259.5,-179.5 253.5,-179.5"/>
<text text-anchor="start" x="176.5" y="-164.3" font-family="Helvetica,sans-Serif" font-size="14.00">gini = 0.0</text>
<text text-anchor="start" x="166.5" y="-149.3" font-family="Helvetica,sans-Serif" font-size="14.00">samples = 1</text>
<text text-anchor="start" x="156.5" y="-134.3" font-family="Helvetica,sans-Serif" font-size="14.00">value = [0, 0, 1]</text>
<text text-anchor="start" x="154.5" y="-119.3" font-family="Helvetica,sans-Serif" font-size="14.00">class = virginica</text>
</g>
<!-- 4&#45;&gt;6 -->
<g id="edge6" class="edge"><title>4&#45;&gt;6</title>
<path fill="none" stroke="black" d="M206,-222.907C206,-212.204 206,-200.615 206,-189.776"/>
<polygon fill="black" stroke="black" points="209.5,-189.667 206,-179.667 202.5,-189.667 209.5,-189.667"/>
</g>
<!-- 8 -->
<g id="node9" class="node"><title>8</title>
<path fill="#8139e5" stroke="black" d="M390.5,-179.5C390.5,-179.5 295.5,-179.5 295.5,-179.5 289.5,-179.5 283.5,-173.5 283.5,-167.5 283.5,-167.5 283.5,-123.5 283.5,-123.5 283.5,-117.5 289.5,-111.5 295.5,-111.5 295.5,-111.5 390.5,-111.5 390.5,-111.5 396.5,-111.5 402.5,-117.5 402.5,-123.5 402.5,-123.5 402.5,-167.5 402.5,-167.5 402.5,-173.5 396.5,-179.5 390.5,-179.5"/>
<text text-anchor="start" x="313.5" y="-164.3" font-family="Helvetica,sans-Serif" font-size="14.00">gini = 0.0</text>
<text text-anchor="start" x="303.5" y="-149.3" font-family="Helvetica,sans-Serif" font-size="14.00">samples = 2</text>
<text text-anchor="start" x="293.5" y="-134.3" font-family="Helvetica,sans-Serif" font-size="14.00">value = [0, 0, 2]</text>
<text text-anchor="start" x="291.5" y="-119.3" font-family="Helvetica,sans-Serif" font-size="14.00">class = virginica</text>
</g>
<!-- 7&#45;&gt;8 -->
<g id="edge8" class="edge"><title>7&#45;&gt;8</title>
<path fill="none" stroke="black" d="M403.081,-222.907C394.144,-211.542 384.422,-199.178 375.455,-187.774"/>
<polygon fill="black" stroke="black" points="378.013,-185.364 369.08,-179.667 372.51,-189.691 378.013,-185.364"/>
</g>
<!-- 9 -->
<g id="node10" class="node"><title>9</title>
<path fill="#9cf2c0" stroke="black" d="M575.5,-187C575.5,-187 432.5,-187 432.5,-187 426.5,-187 420.5,-181 420.5,-175 420.5,-175 420.5,-116 420.5,-116 420.5,-110 426.5,-104 432.5,-104 432.5,-104 575.5,-104 575.5,-104 581.5,-104 587.5,-110 587.5,-116 587.5,-116 587.5,-175 587.5,-175 587.5,-181 581.5,-187 575.5,-187"/>
<text text-anchor="start" x="428.5" y="-171.8" font-family="Helvetica,sans-Serif" font-size="14.00">petal length (cm) ≤ 5.45</text>
<text text-anchor="start" x="466" y="-156.8" font-family="Helvetica,sans-Serif" font-size="14.00">gini = 0.444</text>
<text text-anchor="start" x="464.5" y="-141.8" font-family="Helvetica,sans-Serif" font-size="14.00">samples = 3</text>
<text text-anchor="start" x="454.5" y="-126.8" font-family="Helvetica,sans-Serif" font-size="14.00">value = [0, 2, 1]</text>
<text text-anchor="start" x="448" y="-111.8" font-family="Helvetica,sans-Serif" font-size="14.00">class = versicolor</text>
</g>
<!-- 7&#45;&gt;9 -->
<g id="edge9" class="edge"><title>7&#45;&gt;9</title>
<path fill="none" stroke="black" d="M458.939,-222.907C464.077,-214.195 469.561,-204.897 474.871,-195.893"/>
<polygon fill="black" stroke="black" points="478.038,-197.412 480.103,-187.021 472.008,-193.857 478.038,-197.412"/>
</g>
<!-- 10 -->
<g id="node11" class="node"><title>10</title>
<path fill="#39e581" stroke="black" d="M485,-68C485,-68 381,-68 381,-68 375,-68 369,-62 369,-56 369,-56 369,-12 369,-12 369,-6 375,-0 381,-0 381,-0 485,-0 485,-0 491,-0 497,-6 497,-12 497,-12 497,-56 497,-56 497,-62 491,-68 485,-68"/>
<text text-anchor="start" x="403.5" y="-52.8" font-family="Helvetica,sans-Serif" font-size="14.00">gini = 0.0</text>
<text text-anchor="start" x="393.5" y="-37.8" font-family="Helvetica,sans-Serif" font-size="14.00">samples = 2</text>
<text text-anchor="start" x="383.5" y="-22.8" font-family="Helvetica,sans-Serif" font-size="14.00">value = [0, 2, 0]</text>
<text text-anchor="start" x="377" y="-7.8" font-family="Helvetica,sans-Serif" font-size="14.00">class = versicolor</text>
</g>
<!-- 9&#45;&gt;10 -->
<g id="edge10" class="edge"><title>9&#45;&gt;10</title>
<path fill="none" stroke="black" d="M477.562,-103.726C471.885,-94.9703 465.876,-85.7032 460.171,-76.9051"/>
<polygon fill="black" stroke="black" points="462.969,-74.786 454.592,-68.2996 457.095,-78.5943 462.969,-74.786"/>
</g>
<!-- 11 -->
<g id="node12" class="node"><title>11</title>
<path fill="#8139e5" stroke="black" d="M622.5,-68C622.5,-68 527.5,-68 527.5,-68 521.5,-68 515.5,-62 515.5,-56 515.5,-56 515.5,-12 515.5,-12 515.5,-6 521.5,-0 527.5,-0 527.5,-0 622.5,-0 622.5,-0 628.5,-0 634.5,-6 634.5,-12 634.5,-12 634.5,-56 634.5,-56 634.5,-62 628.5,-68 622.5,-68"/>
<text text-anchor="start" x="545.5" y="-52.8" font-family="Helvetica,sans-Serif" font-size="14.00">gini = 0.0</text>
<text text-anchor="start" x="535.5" y="-37.8" font-family="Helvetica,sans-Serif" font-size="14.00">samples = 1</text>
<text text-anchor="start" x="525.5" y="-22.8" font-family="Helvetica,sans-Serif" font-size="14.00">value = [0, 0, 1]</text>
<text text-anchor="start" x="523.5" y="-7.8" font-family="Helvetica,sans-Serif" font-size="14.00">class = virginica</text>
</g>
<!-- 9&#45;&gt;11 -->
<g id="edge11" class="edge"><title>9&#45;&gt;11</title>
<path fill="none" stroke="black" d="M530.438,-103.726C536.115,-94.9703 542.124,-85.7032 547.829,-76.9051"/>
<polygon fill="black" stroke="black" points="550.905,-78.5943 553.408,-68.2996 545.031,-74.786 550.905,-78.5943"/>
</g>
<!-- 13 -->
<g id="node14" class="node"><title>13</title>
<path fill="#ffffff" stroke="black" d="M743.5,-306C743.5,-306 596.5,-306 596.5,-306 590.5,-306 584.5,-300 584.5,-294 584.5,-294 584.5,-235 584.5,-235 584.5,-229 590.5,-223 596.5,-223 596.5,-223 743.5,-223 743.5,-223 749.5,-223 755.5,-229 755.5,-235 755.5,-235 755.5,-294 755.5,-294 755.5,-300 749.5,-306 743.5,-306"/>
<text text-anchor="start" x="592.5" y="-290.8" font-family="Helvetica,sans-Serif" font-size="14.00">sepal length (cm) ≤ 5.95</text>
<text text-anchor="start" x="640.5" y="-275.8" font-family="Helvetica,sans-Serif" font-size="14.00">gini = 0.5</text>
<text text-anchor="start" x="630.5" y="-260.8" font-family="Helvetica,sans-Serif" font-size="14.00">samples = 2</text>
<text text-anchor="start" x="620.5" y="-245.8" font-family="Helvetica,sans-Serif" font-size="14.00">value = [0, 1, 1]</text>
<text text-anchor="start" x="614" y="-230.8" font-family="Helvetica,sans-Serif" font-size="14.00">class = versicolor</text>
</g>
<!-- 12&#45;&gt;13 -->
<g id="edge13" class="edge"><title>12&#45;&gt;13</title>
<path fill="none" stroke="black" d="M670,-341.907C670,-333.649 670,-324.864 670,-316.302"/>
<polygon fill="black" stroke="black" points="673.5,-316.021 670,-306.021 666.5,-316.021 673.5,-316.021"/>
</g>
<!-- 16 -->
<g id="node17" class="node"><title>16</title>
<path fill="#8139e5" stroke="black" d="M884.5,-298.5C884.5,-298.5 785.5,-298.5 785.5,-298.5 779.5,-298.5 773.5,-292.5 773.5,-286.5 773.5,-286.5 773.5,-242.5 773.5,-242.5 773.5,-236.5 779.5,-230.5 785.5,-230.5 785.5,-230.5 884.5,-230.5 884.5,-230.5 890.5,-230.5 896.5,-236.5 896.5,-242.5 896.5,-242.5 896.5,-286.5 896.5,-286.5 896.5,-292.5 890.5,-298.5 884.5,-298.5"/>
<text text-anchor="start" x="805.5" y="-283.3" font-family="Helvetica,sans-Serif" font-size="14.00">gini = 0.0</text>
<text text-anchor="start" x="791" y="-268.3" font-family="Helvetica,sans-Serif" font-size="14.00">samples = 39</text>
<text text-anchor="start" x="781.5" y="-253.3" font-family="Helvetica,sans-Serif" font-size="14.00">value = [0, 0, 39]</text>
<text text-anchor="start" x="783.5" y="-238.3" font-family="Helvetica,sans-Serif" font-size="14.00">class = virginica</text>
</g>
<!-- 12&#45;&gt;16 -->
<g id="edge16" class="edge"><title>12&#45;&gt;16</title>
<path fill="none" stroke="black" d="M727.246,-341.907C744.364,-329.769 763.086,-316.493 780.053,-304.462"/>
<polygon fill="black" stroke="black" points="782.093,-307.306 788.226,-298.667 778.044,-301.596 782.093,-307.306"/>
</g>
<!-- 14 -->
<g id="node15" class="node"><title>14</title>
<path fill="#39e581" stroke="black" d="M722,-179.5C722,-179.5 618,-179.5 618,-179.5 612,-179.5 606,-173.5 606,-167.5 606,-167.5 606,-123.5 606,-123.5 606,-117.5 612,-111.5 618,-111.5 618,-111.5 722,-111.5 722,-111.5 728,-111.5 734,-117.5 734,-123.5 734,-123.5 734,-167.5 734,-167.5 734,-173.5 728,-179.5 722,-179.5"/>
<text text-anchor="start" x="640.5" y="-164.3" font-family="Helvetica,sans-Serif" font-size="14.00">gini = 0.0</text>
<text text-anchor="start" x="630.5" y="-149.3" font-family="Helvetica,sans-Serif" font-size="14.00">samples = 1</text>
<text text-anchor="start" x="620.5" y="-134.3" font-family="Helvetica,sans-Serif" font-size="14.00">value = [0, 1, 0]</text>
<text text-anchor="start" x="614" y="-119.3" font-family="Helvetica,sans-Serif" font-size="14.00">class = versicolor</text>
</g>
<!-- 13&#45;&gt;14 -->
<g id="edge14" class="edge"><title>13&#45;&gt;14</title>
<path fill="none" stroke="black" d="M670,-222.907C670,-212.204 670,-200.615 670,-189.776"/>
<polygon fill="black" stroke="black" points="673.5,-189.667 670,-179.667 666.5,-189.667 673.5,-189.667"/>
</g>
<!-- 15 -->
<g id="node16" class="node"><title>15</title>
<path fill="#8139e5" stroke="black" d="M859.5,-179.5C859.5,-179.5 764.5,-179.5 764.5,-179.5 758.5,-179.5 752.5,-173.5 752.5,-167.5 752.5,-167.5 752.5,-123.5 752.5,-123.5 752.5,-117.5 758.5,-111.5 764.5,-111.5 764.5,-111.5 859.5,-111.5 859.5,-111.5 865.5,-111.5 871.5,-117.5 871.5,-123.5 871.5,-123.5 871.5,-167.5 871.5,-167.5 871.5,-173.5 865.5,-179.5 859.5,-179.5"/>
<text text-anchor="start" x="782.5" y="-164.3" font-family="Helvetica,sans-Serif" font-size="14.00">gini = 0.0</text>
<text text-anchor="start" x="772.5" y="-149.3" font-family="Helvetica,sans-Serif" font-size="14.00">samples = 1</text>
<text text-anchor="start" x="762.5" y="-134.3" font-family="Helvetica,sans-Serif" font-size="14.00">value = [0, 0, 1]</text>
<text text-anchor="start" x="760.5" y="-119.3" font-family="Helvetica,sans-Serif" font-size="14.00">class = virginica</text>
</g>
<!-- 13&#45;&gt;15 -->
<g id="edge15" class="edge"><title>13&#45;&gt;15</title>
<path fill="none" stroke="black" d="M719.266,-222.907C733.73,-210.99 749.525,-197.976 763.914,-186.12"/>
<polygon fill="black" stroke="black" points="766.254,-188.727 771.746,-179.667 761.803,-183.325 766.254,-188.727"/>
</g>
</g>
</svg>
